{"accessors" : [{"bufferView" : 0, "byteOffset" : 0, "componentType" : 5123, "count" : 3360, "type" : "SCALAR", "max" : [3359], "min" : [0]}, {"bufferView" : 1, "byteOffset" : 0, "componentType" : 5126, "count" : 3360, "type" : "VEC3", "max" : [4.592942237854004, 5.169869899749756, 3.7516932487487793], "min" : [-4.266103744506836, -3.8309173583984375, -4.139379501342773], "name" : "POSITION"}, {"bufferView" : 1, "byteOffset" : 12, "componentType" : 5126, "count" : 3360, "type" : "VEC3", "max" : [1.000002384185791, 0.9999685287475586, 0.9998705387115479], "min" : [-0.9999767541885376, -0.9999144077301025, -0.9999085068702698], "name" : "NORMAL"}, {"bufferView" : 1, "byteOffset" : 24, "componentType" : 5126, "count" : 3360, "type" : "VEC2", "max" : [0.7213780283927917, -0.0005000000237487257], "min" : [0.0005000000237487257, -0.9994999766349792], "name" : "TEXCOORD_0"}], "asset" : {"generator" : "Aspose.3D 22.3", "version" : "2.0"}, "buffers" : [{"uri" : "data:application/octet-stream;base64,", "byteLength" : 114248}], "bufferViews" : [{"buffer" : 0, "byteOffset" : 0, "byteLength" : 6720, "target" : 34963}, {"buffer" : 0, "byteOffset" : 6724, "byteLength" : 107520, "byteStride" : 32, "target" : 34962}], "materials" : [{"name" : "Paving_Stone_1", "pbrMetallicRoughness" : {"baseColorFactor" : [0, 0, 0, 1], "metallicFactor" : 0, "roughnessFactor" : 0}, "emissiveFactor" : [0, 0, 0], "alphaMode" : "OPAQUE", "doubleSided" : false}], "meshes" : [{"primitives" : [{"attributes" : {"POSITION" : 1, "NORMAL" : 2, "TEXCOORD_0" : 3}, "indices" : 0, "material" : 0, "mode" : 4}], "name" : ""}], "nodes" : [{"matrix" : [0.9999999999999848, -8.742277657347432E-08, 1.5099580252808482E-07, 0, 1.509957893276108E-07, -1.5099580896738019E-07, -0.9999999999999774, 0, 8.742279937320567E-08, 0.9999999999999849, -1.509957958667485E-07, 0, -0.16341947762382578, 4.1393805703918, 0.6694759785987718, 1], "mesh" : 0, "name" : "Paving_Stone_1"}], "scene" : 0, "scenes" : [{"nodes" : [0]}]}