{
    "asset" : {
        "generator" : "Khronos glTF Blender I/O v3.2.40",
        "version" : "2.0"
    },
    "scene" : 0,
    "scenes" : [
        {
            "name" : "Scene",
            "nodes" : [
                0
            ]
        }
    ],
    "nodes" : [
        {
            "mesh" : 0,
            "name" : "Cube",
            "translation" : [
                -1.8722163438796997,
                1.41743803024292,
                0.4229450523853302
            ]
        }
    ],
    "materials" : [
        {
            "doubleSided" : true,
            "name" : "\u6728\u982d",
            "pbrMetallicRoughness" : {}
        },
        {
            "doubleSided" : true,
            "name" : "\u5730\u677f",
            "pbrMetallicRoughness" : {}
        },
        {
            "doubleSided" : true,
            "name" : "\u91d1\u5c6c\u5f48\u7c27",
            "pbrMetallicRoughness" : {
                "baseColorTexture" : {
                    "index" : 0,
                    "texCoord" : 1
                },
                "metallicFactor" : 0,
                "roughnessFactor" : 0
            }
        }
    ],
    "meshes" : [
        {
            "name" : "Cube.002",
            "primitives" : [
                {
                    "attributes" : {
                        "POSITION" : 0,
                        "NORMAL" : 1,
                        "TEXCOORD_0" : 2,
                        "TEXCOORD_1" : 3
                    },
                    "indices" : 4,
                    "material" : 0
                },
                {
                    "attributes" : {
                        "POSITION" : 5,
                        "NORMAL" : 6,
                        "TEXCOORD_0" : 7,
                        "TEXCOORD_1" : 8
                    },
                    "indices" : 9,
                    "material" : 1
                },
                {
                    "attributes" : {
                        "POSITION" : 10,
                        "NORMAL" : 11,
                        "TEXCOORD_0" : 12,
                        "TEXCOORD_1" : 13
                    },
                    "indices" : 14,
                    "material" : 2
                }
            ]
        }
    ],
    "textures" : [
        {
            "sampler" : 0,
            "source" : 0
        }
    ],
    "images" : [
        {
            "mimeType" : "image/png",
            "name" : "baking_2",
            "uri" : "baking_2.png"
        }
    ],
    "accessors" : [
        {
            "bufferView" : 0,
            "componentType" : 5126,
            "count" : 476,
            "max" : [
                3.3567891120910645,
                0.20082025229930878,
                2.1720664501190186
            ],
            "min" : [
                0.4303215742111206,
                0.03153202682733536,
                -3.326357126235962
            ],
            "type" : "VEC3"
        },
        {
            "bufferView" : 1,
            "componentType" : 5126,
            "count" : 476,
            "type" : "VEC3"
        },
        {
            "bufferView" : 2,
            "componentType" : 5126,
            "count" : 476,
            "type" : "VEC2"
        },
        {
            "bufferView" : 3,
            "componentType" : 5126,
            "count" : 476,
            "type" : "VEC2"
        },
        {
            "bufferView" : 4,
            "componentType" : 5123,
            "count" : 936,
            "type" : "SCALAR"
        },
        {
            "bufferView" : 5,
            "componentType" : 5126,
            "count" : 344,
            "max" : [
                3.5033762454986572,
                -1.1262274980545044,
                2.274169683456421
            ],
            "min" : [
                0.28052783012390137,
                -1.4304944276809692,
                -3.3830106258392334
            ],
            "type" : "VEC3"
        },
        {
            "bufferView" : 6,
            "componentType" : 5126,
            "count" : 344,
            "type" : "VEC3"
        },
        {
            "bufferView" : 7,
            "componentType" : 5126,
            "count" : 344,
            "type" : "VEC2"
        },
        {
            "bufferView" : 8,
            "componentType" : 5126,
            "count" : 344,
            "type" : "VEC2"
        },
        {
            "bufferView" : 9,
            "componentType" : 5123,
            "count" : 516,
            "type" : "SCALAR"
        },
        {
            "bufferView" : 10,
            "componentType" : 5126,
            "count" : 50160,
            "max" : [
                3.3251900672912598,
                0.13659542798995972,
                2.0956294536590576
            ],
            "min" : [
                0.5251574516296387,
                -1.2931909561157227,
                -3.1066155433654785
            ],
            "type" : "VEC3"
        },
        {
            "bufferView" : 11,
            "componentType" : 5126,
            "count" : 50160,
            "type" : "VEC3"
        },
        {
            "bufferView" : 12,
            "componentType" : 5126,
            "count" : 50160,
            "type" : "VEC2"
        },
        {
            "bufferView" : 13,
            "componentType" : 5126,
            "count" : 50160,
            "type" : "VEC2"
        },
        {
            "bufferView" : 14,
            "componentType" : 5123,
            "count" : 258048,
            "type" : "SCALAR"
        }
    ],
    "bufferViews" : [
        {
            "buffer" : 0,
            "byteLength" : 5712,
            "byteOffset" : 0
        },
        {
            "buffer" : 0,
            "byteLength" : 5712,
            "byteOffset" : 5712
        },
        {
            "buffer" : 0,
            "byteLength" : 3808,
            "byteOffset" : 11424
        },
        {
            "buffer" : 0,
            "byteLength" : 3808,
            "byteOffset" : 15232
        },
        {
            "buffer" : 0,
            "byteLength" : 1872,
            "byteOffset" : 19040
        },
        {
            "buffer" : 0,
            "byteLength" : 4128,
            "byteOffset" : 20912
        },
        {
            "buffer" : 0,
            "byteLength" : 4128,
            "byteOffset" : 25040
        },
        {
            "buffer" : 0,
            "byteLength" : 2752,
            "byteOffset" : 29168
        },
        {
            "buffer" : 0,
            "byteLength" : 2752,
            "byteOffset" : 31920
        },
        {
            "buffer" : 0,
            "byteLength" : 1032,
            "byteOffset" : 34672
        },
        {
            "buffer" : 0,
            "byteLength" : 601920,
            "byteOffset" : 35704
        },
        {
            "buffer" : 0,
            "byteLength" : 601920,
            "byteOffset" : 637624
        },
        {
            "buffer" : 0,
            "byteLength" : 401280,
            "byteOffset" : 1239544
        },
        {
            "buffer" : 0,
            "byteLength" : 401280,
            "byteOffset" : 1640824
        },
        {
            "buffer" : 0,
            "byteLength" : 516096,
            "byteOffset" : 2042104
        }
    ],
    "samplers" : [
        {
            "magFilter" : 9729,
            "minFilter" : 9987
        }
    ],
    "buffers" : [
        {
            "byteLength" : 2558200,
            "uri" : "jump_board.bin"
        }
    ]
}
