{
  "accessors": [
    {
      "bufferView": 2,
      "componentType": 5126,
      "count": 470,
      "max": [
        0.30000001192092896,
        0.30000001192092896,
        0.18506157398223877
      ],
      "min": [
        -0.30000001192092896,
        -0.30000001192092896,
        0.0
      ],
      "type": "VEC3"
    },
    {
      "bufferView": 2,
      "byteOffset": 5640,
      "componentType": 5126,
      "count": 470,
      "max": [
        1.0,
        1.0,
        1.0
      ],
      "min": [
        -1.0,
        -1.0,
        0.0
      ],
      "type": "VEC3"
    },
    {
      "bufferView": 3,
      "componentType": 5126,
      "count": 470,
      "max": [
        0.9950961470603943,
        1.0,
        1.0,
        1.0
      ],
      "min": [
        -0.9990828037261963,
        -0.9999945759773254,
        -1.0,
        1.0
      ],
      "type": "VEC4"
    },
    {
      "bufferView": 1,
      "componentType": 5126,
      "count": 470,
      "max": [
        0.916262686252594,
        0.9974989891052246
      ],
      "min": [
        0.002499932423233986,
        0.002495519118383527
      ],
      "type": "VEC2"
    },
    {
      "bufferView": 1,
      "byteOffset": 3760,
      "componentType": 5126,
      "count": 470,
      "max": [
        0.916262686252594,
        0.9974989891052246
      ],
      "min": [
        0.002499932423233986,
        0.002495519118383527
      ],
      "type": "VEC2"
    },
    {
      "bufferView": 0,
      "componentType": 5125,
      "count": 1230,
      "type": "SCALAR"
    }
  ],
  "asset": {
    "extras": {
      "author": "Nichgon (https://sketchfab.com/nichgon)",
      "license": "CC-BY-4.0 (http://creativecommons.org/licenses/by/4.0/)",
      "source": "https://sketchfab.com/3d-models/spike-trap-01-4022678cac214fd2963894aa152fc6f2",
      "title": "Spike Trap 01"
    },
    "generator": "Sketchfab-12.67.0",
    "version": "2.0"
  },
  "bufferViews": [
    {
      "buffer": 0,
      "byteLength": 4920,
      "name": "floatBufferViews",
      "target": 34963
    },
    {
      "buffer": 0,
      "byteLength": 7520,
      "byteOffset": 4920,
      "byteStride": 8,
      "name": "floatBufferViews",
      "target": 34962
    },
    {
      "buffer": 0,
      "byteLength": 11280,
      "byteOffset": 12440,
      "byteStride": 12,
      "name": "floatBufferViews",
      "target": 34962
    },
    {
      "buffer": 0,
      "byteLength": 7520,
      "byteOffset": 23720,
      "byteStride": 16,
      "name": "floatBufferViews",
      "target": 34962
    }
  ],
  "buffers": [
    {
      "byteLength": 31240,
      "uri": "scene.bin"
    }
  ],
  "images": [
    {
      "uri": "textures/OPM0041_baseColor.png"
    },
    {
      "uri": "textures/OPM0041_metallicRoughness.png"
    },
    {
      "uri": "textures/OPM0041_normal.png"
    }
  ],
  "materials": [
    {
      "doubleSided": true,
      "name": "OPM0041",
      "normalTexture": {
        "index": 2
      },
      "occlusionTexture": {
        "index": 1
      },
      "pbrMetallicRoughness": {
        "baseColorTexture": {
          "index": 0
        },
        "metallicRoughnessTexture": {
          "index": 1
        },
        "roughnessFactor": 0.85
      }
    }
  ],
  "meshes": [
    {
      "name": "OPM0041_OPM0041_0",
      "primitives": [
        {
          "attributes": {
            "NORMAL": 1,
            "POSITION": 0,
            "TANGENT": 2,
            "TEXCOORD_0": 3,
            "TEXCOORD_1": 4
          },
          "indices": 5,
          "material": 0,
          "mode": 4
        }
      ]
    }
  ],
  "nodes": [
    {
      "children": [
        1
      ],
      "matrix": [
        1.0,
        0.0,
        0.0,
        0.0,
        0.0,
        2.220446049250313e-16,
        -1.0,
        0.0,
        0.0,
        1.0,
        2.220446049250313e-16,
        0.0,
        0.0,
        0.0,
        0.0,
        1.0
      ],
      "name": "Sketchfab_model"
    },
    {
      "children": [
        2
      ],
      "matrix": [
        0.009999999776482582,
        0.0,
        0.0,
        0.0,
        0.0,
        0.0,
        0.009999999776482582,
        0.0,
        0.0,
        -0.009999999776482582,
        0.0,
        0.0,
        0.0,
        0.0,
        0.0,
        1.0
      ],
      "name": "4424719673b84aae8256f19889769264.fbx"
    },
    {
      "children": [
        3
      ],
      "name": "RootNode"
    },
    {
      "children": [
        4
      ],
      "matrix": [
        100.0,
        0.0,
        0.0,
        0.0,
        0.0,
        -1.629206793918314e-05,
        -99.99999999999868,
        0.0,
        0.0,
        99.99999999999868,
        -1.629206793918314e-05,
        0.0,
        0.0,
        0.0,
        0.0,
        1.0
      ],
      "name": "OPM0041"
    },
    {
      "mesh": 0,
      "name": "OPM0041_OPM0041_0"
    }
  ],
  "samplers": [
    {
      "magFilter": 9729,
      "minFilter": 9987,
      "wrapS": 10497,
      "wrapT": 10497
    }
  ],
  "scene": 0,
  "scenes": [
    {
      "name": "Sketchfab_Scene",
      "nodes": [
        0
      ]
    }
  ],
  "textures": [
    {
      "sampler": 0,
      "source": 0
    },
    {
      "sampler": 0,
      "source": 1
    },
    {
      "sampler": 0,
      "source": 2
    }
  ]
}
